#N canvas 1038 88 688 892 10;
#X obj 186 309 dac~;
#X obj 110 182 r left;
#X obj 298 180 r right;
#X obj 36 150 osc~;
#X obj 80 151 osc~;
#X obj 39 194 *~ 0.2;
#X obj 235 181 *~ 0.2;
#X obj 266 227 *~ 1;
#X obj 90 226 *~ 1;
#X obj 35 47 comport 9600;
#X msg 36 17 devices;
#X floatatom 35 70 5 0 0 0 - - -;
#X obj 35 102 * 10;
#X obj 75 103 * 20;
#X msg 95 19 open 13;
#X msg 158 21 close;
#X obj 364 49;
#X connect 1 0 8 1;
#X connect 2 0 7 1;
#X connect 3 0 5 0;
#X connect 4 0 6 0;
#X connect 5 0 8 0;
#X connect 6 0 7 0;
#X connect 7 0 0 1;
#X connect 8 0 0 0;
#X connect 9 0 11 0;
#X connect 10 0 9 0;
#X connect 11 0 12 0;
#X connect 11 0 13 0;
#X connect 12 0 3 0;
#X connect 13 0 4 0;
#X connect 14 0 9 0;
#X connect 15 0 9 0;
